<svg xmlns="http://www.w3.org/2000/svg" viewBox="0 0 512 512">
  <defs>
    <linearGradient id="bg" x1="0" x2="1" y1="0" y2="1">
      <stop offset="0%" stop-color="#7de2d1" />
      <stop offset="100%" stop-color="#1f4f96" />
    </linearGradient>
  </defs>
  <rect width="512" height="512" rx="120" fill="#081119" />
  <path
    fill="url(#bg)"
    d="M104 150c0-24.301 19.699-44 44-44h216c24.301 0 44 19.699 44 44v212c0 24.301-19.699 44-44 44H148c-24.301 0-44-19.699-44-44V150Zm44 0v212h216V150H148Zm52 40h112c22.091 0 40 17.909 40 40v52c0 22.091-17.909 40-40 40H200c-22.091 0-40-17.909-40-40v-52c0-22.091 17.909-40 40-40Z"
  />
</svg>
